<?xml version="1.0" standalone="no"?>
<!DOCTYPE svg PUBLIC "-//W3C//DTD SVG 20010904//EN"
 "http://www.w3.org/TR/2001/REC-SVG-20010904/DTD/svg10.dtd">
<svg version="1.0" xmlns="http://www.w3.org/2000/svg"
 width="512.000000pt" height="512.000000pt" viewBox="0 0 512.000000 512.000000"
 preserveAspectRatio="xMidYMid meet">
<metadata>
Created by potrace 1.14, written by Peter Selinger 2001-2017
</metadata>
<g transform="translate(0.000000,512.000000) scale(0.100000,-0.100000)"
fill="#000000" stroke="none">
<path d="M445 5080 c0 -22 2 -40 5 -40 3 0 5 -15 4 -32 -1 -18 4 -36 10 -40 8
-5 7 -8 -2 -8 -9 0 -10 -5 -3 -18 5 -10 10 -32 11 -48 2 -80 5 -124 10 -124 5
0 10 -139 13 -355 1 -66 6 -123 12 -127 6 -5 5 -8 -3 -8 -7 0 -10 -5 -7 -10 3
-6 9 -94 11 -198 7 -263 7 -1343 0 -1427 -3 -38 -8 -115 -11 -170 -7 -133 -10
-1049 -4 -1061 3 -5 4 -121 2 -259 -4 -281 -5 -315 -13 -315 -3 0 -6 -15 -6
-32 -1 -18 -5 -73 -9 -123 -5 -49 -9 -127 -9 -173 0 -45 -3 -82 -6 -82 -3 0
-5 -66 -4 -148 0 -81 -4 -155 -8 -165 -5 -10 -5 -17 1 -17 5 0 7 -12 4 -28 -3
-15 -6 -36 -7 -47 -1 -20 6 -20 583 -23 322 -1 582 1 578 4 -3 4 -2 15 4 25 5
11 6 19 2 19 -4 0 -8 11 -8 25 0 14 3 25 6 25 8 0 5 33 -5 48 -4 6 -3 12 1 12
5 0 9 16 9 35 0 19 -4 35 -9 35 -4 0 -5 6 -1 12 5 7 9 46 10 88 5 138 13 284
20 345 3 33 7 71 7 85 1 14 6 28 11 32 6 4 5 12 -2 21 -7 7 -9 17 -5 21 16 16
24 466 8 466 -6 0 -6 3 1 8 6 4 9 16 7 27 -2 11 -5 152 -6 313 l-3 293 23 -4
c13 -2 23 -1 23 2 0 6 119 12 283 14 42 1 77 5 77 10 0 5 6 4 13 -2 8 -6 17
-8 20 -4 4 3 30 7 57 9 28 1 72 5 98 9 26 4 72 9 102 12 93 8 125 11 125 13 0
1 11 3 25 5 14 2 43 6 65 9 22 3 55 8 74 12 19 3 65 6 103 7 37 1 68 6 68 12
0 5 5 4 10 -1 6 -6 29 -9 50 -7 22 2 40 0 41 -4 0 -4 2 -92 3 -194 2 -103 6
-192 10 -198 4 -6 1 -11 -6 -11 -8 0 -9 -3 -3 -8 6 -4 10 -25 9 -47 0 -22 3
-50 7 -62 5 -12 5 -24 1 -27 -5 -3 -7 -20 -5 -38 2 -18 3 -44 3 -58 -1 -14 -1
-32 -1 -40 2 -27 1 -45 -3 -65 -2 -11 1 -26 7 -33 6 -7 6 -17 0 -25 -10 -13
-10 -54 0 -63 3 -3 2 -17 -3 -30 -6 -14 -6 -26 1 -29 5 -4 7 -11 4 -16 -4 -5
-8 -53 -10 -106 -3 -54 -7 -109 -10 -122 -7 -37 -18 -188 -19 -263 -1 -38 -3
-68 -6 -68 -5 0 -5 -74 0 -95 1 -5 1 -12 0 -15 -7 -15 -5 -90 3 -90 4 0 5 -5
2 -10 -9 -15 -15 -54 -18 -111 -1 -27 -4 -49 -7 -49 -3 0 -6 -36 -6 -80 l-2
-80 579 0 c544 0 579 1 580 18 1 18 3 39 14 142 3 36 7 82 7 103 1 21 5 40 10
43 4 3 5 11 1 17 -10 16 -10 187 0 187 5 0 5 5 2 11 -10 14 -14 59 -6 59 4 0
7 19 8 43 1 23 4 65 7 92 10 96 18 200 20 255 1 31 6 61 10 68 4 7 3 12 -1 12
-11 0 -10 50 0 68 5 6 4 12 -1 12 -10 0 -9 50 2 68 4 7 4 12 -1 12 -4 0 -8 29
-8 65 0 36 4 65 8 65 5 0 5 5 1 11 -7 11 -14 211 -18 451 0 65 -5 118 -9 118
-5 0 -5 5 -1 12 9 15 10 71 1 86 -4 6 -3 13 2 17 6 3 7 15 1 29 -4 12 -4 29 0
36 5 9 4 20 -2 27 -6 8 -7 13 -1 13 10 0 10 41 0 57 -3 5 -2 15 3 22 4 8 4 26
0 41 -4 15 -3 34 2 43 6 11 5 17 -2 17 -7 0 -8 6 -1 19 6 10 8 21 5 24 -5 4
-12 127 -17 280 0 15 -3 27 -6 27 -3 0 -7 12 -7 28 -3 59 -9 92 -16 92 -4 0
-8 10 -8 23 0 13 -4 27 -9 33 -5 5 -11 18 -13 29 -1 11 -11 28 -21 37 -10 9
-17 19 -15 22 2 3 -4 13 -12 23 -9 10 -15 21 -15 24 0 10 -123 128 -128 123
-2 -3 -10 2 -17 11 -7 8 -19 15 -27 15 -8 0 -11 5 -7 13 4 6 3 9 -1 4 -5 -4
-19 0 -32 8 -13 9 -23 13 -23 9 0 -4 -7 0 -16 7 -15 12 -34 19 -61 21 -7 1
-13 4 -13 8 0 4 -6 7 -12 8 -7 0 -29 4 -48 7 -47 9 -222 10 -290 2 -30 -4 -67
-9 -82 -10 -15 -1 -30 -5 -34 -9 -3 -4 -15 -3 -25 2 -12 7 -20 7 -24 0 -4 -7
-12 -7 -24 0 -10 5 -21 7 -24 4 -9 -10 -57 -12 -57 -2 0 5 -8 4 -18 -1 -10 -6
-24 -6 -32 -1 -8 5 -18 6 -23 3 -15 -9 -77 -10 -83 -1 -3 4 -11 5 -17 1 -7 -4
-39 -9 -72 -10 -33 -1 -60 -2 -60 -3 0 -1 -34 -3 -75 -6 -76 -4 -108 -8 -190
-19 -47 -7 -53 -8 -110 -18 -19 -4 -62 -9 -95 -12 -33 -2 -80 -7 -105 -10 -25
-4 -55 -8 -67 -9 -13 -2 -23 2 -23 8 0 7 -3 8 -8 1 -4 -6 -20 -11 -37 -12 -16
0 -89 -3 -162 -6 l-132 -6 1 99 c0 54 -3 103 -6 109 -4 6 -4 11 1 11 12 0 10
94 -2 102 -7 5 -7 8 0 8 10 0 15 310 5 310 -3 0 -5 83 -5 185 0 102 -4 185 -8
185 -5 0 -5 5 -2 10 6 10 10 87 5 100 -1 4 -5 124 -13 413 -1 42 -5 77 -10 77
-4 0 -5 5 -1 12 9 14 11 68 4 68 -3 0 -6 15 -6 33 -1 39 -11 154 -19 222 -4
28 -7 56 -7 63 -1 9 -125 12 -582 12 l-581 0 0 -40z"/>
</g>
</svg>
